<?xml version="1.0" standalone="no"?>
<!DOCTYPE svg PUBLIC "-//W3C//DTD SVG 20010904//EN"
 "http://www.w3.org/TR/2001/REC-SVG-20010904/DTD/svg10.dtd">
<svg version="1.0" xmlns="http://www.w3.org/2000/svg"
 width="143.000000pt" height="143.000000pt" viewBox="0 0 143.000000 143.000000"
 preserveAspectRatio="xMidYMid meet">
<metadata>
Created by potrace 1.11, written by Peter Selinger 2001-2013
</metadata>
<g transform="translate(0.000000,143.000000) scale(0.100000,-0.100000)"
fill="#000000" stroke="none">
<path d="M236 1193 c-24 -25 25 -102 75 -118 25 -8 24 -13 -10 -79 -22 -41
-28 -65 -25 -92 3 -28 -1 -44 -21 -70 -31 -40 -55 -95 -55 -124 0 -11 -18 -50
-41 -86 -58 -95 -80 -160 -82 -242 -1 -41 31 -75 70 -74 15 0 43 -6 61 -14 37
-17 56 -13 95 21 31 28 34 51 10 85 -25 36 -25 47 4 104 44 89 48 91 94 45 22
-22 47 -58 54 -80 13 -36 13 -40 -5 -49 -27 -14 -43 -47 -36 -75 7 -26 42 -37
124 -40 46 -1 56 2 73 23 11 15 19 40 19 63 0 38 1 39 38 40 105 4 208 5 214
2 13 -7 -5 -44 -21 -41 -9 1 -35 -3 -58 -11 -43 -14 -60 -43 -49 -79 11 -35
111 -71 180 -65 40 3 95 28 112 51 11 16 59 8 49 -8 -12 -19 44 -41 105 -43
57 -2 64 0 83 26 18 24 21 39 19 115 -3 108 -14 141 -56 179 -19 18 -42 55
-56 92 l-23 62 21 20 c12 11 24 30 28 43 4 16 15 26 33 29 16 3 42 18 60 32
27 23 31 33 31 74 0 72 -48 121 -113 115 -85 -8 -134 -117 -80 -177 17 -18 17
-19 -2 -33 -10 -8 -22 -13 -25 -12 -51 27 -104 74 -136 121 -40 60 -108 117
-141 117 -20 0 -56 20 -36 20 7 0 17 9 23 20 9 17 6 27 -16 56 -29 37 -71 64
-90 57 -7 -2 -29 -21 -51 -41 l-39 -38 -93 1 c-89 0 -94 1 -115 28 -12 15 -37
32 -56 37 -45 13 -135 21 -144 13z m1055 -198 c55 -29 65 -100 20 -146 -27
-27 -80 -42 -66 -19 4 6 10 8 15 5 14 -9 60 38 64 65 8 60 -49 108 -106 88
-48 -17 -68 -86 -37 -125 8 -9 8 -13 1 -13 -15 0 -32 33 -32 62 1 48 47 97 93
98 10 0 31 -7 48 -15z m3 -34 c9 -10 18 -28 21 -39 4 -24 -29 -72 -51 -72 -20
0 -17 13 6 28 35 21 20 83 -19 81 -10 0 -7 -4 7 -10 18 -7 23 -15 20 -36 -2
-14 -9 -29 -17 -31 -10 -3 -12 0 -8 11 10 27 -17 39 -36 17 -9 -11 -17 -26
-17 -33 -1 -7 -7 -4 -15 6 -29 39 7 97 60 97 18 0 39 -8 49 -19z"/>
<path d="M1210 950 c-8 -5 -12 -12 -9 -15 4 -3 12 1 19 10 14 17 11 19 -10 5z"/>
</g>
</svg>
